<?xml version="1.0" standalone="no"?>
<!DOCTYPE svg PUBLIC "-//W3C//DTD SVG 20010904//EN"
 "http://www.w3.org/TR/2001/REC-SVG-20010904/DTD/svg10.dtd">
<svg version="1.0" xmlns="http://www.w3.org/2000/svg"
 width="512.000000pt" height="512.000000pt" viewBox="0 0 512.000000 512.000000"
 preserveAspectRatio="xMidYMid meet">

<g transform="translate(0.000000,512.000000) scale(0.100000,-0.100000)"
fill="#000000" stroke="none">
<path d="M635 4829 c-95 -9 -205 -45 -282 -91 -124 -75 -244 -216 -293 -345
-52 -136 -51 -96 -47 -1859 2 -1541 4 -1643 20 -1699 62 -207 201 -369 391
-455 139 -63 5 -60 2137 -60 1904 0 1947 0 2023 20 244 62 437 254 503 500 17
61 18 172 18 1740 l0 1675 -23 75 c-40 126 -88 207 -177 295 -131 130 -252
188 -434 205 -119 11 -3717 10 -3836 -1z m3883 -485 c67 -33 110 -93 122 -172
15 -90 13 -627 -2 -639 -21 -17 -2062 -983 -2075 -983 -7 0 -479 233 -1048
517 l-1035 518 0 308 c0 283 2 311 19 345 25 50 67 91 116 113 38 18 119 19
1946 19 l1905 0 52 -26z m-920 -1821 c570 272 1040 491 1045 487 4 -4 6 -467
5 -1031 l-3 -1024 -22 -41 c-28 -53 -91 -107 -142 -122 -55 -17 -3787 -17
-3842 0 -52 15 -117 73 -140 122 -18 39 -19 93 -19 1099 l0 1057 1040 -520
1040 -520 1038 493z"/>
</g>
</svg>
