<?xml version="1.0" standalone="no"?>
<!DOCTYPE svg PUBLIC "-//W3C//DTD SVG 20010904//EN"
 "http://www.w3.org/TR/2001/REC-SVG-20010904/DTD/svg10.dtd">
<svg version="1.0" xmlns="http://www.w3.org/2000/svg"
 width="512.000000pt" height="512.000000pt" viewBox="0 0 512.000000 512.000000"
 preserveAspectRatio="xMidYMid meet">

<g transform="translate(0.000000,512.000000) scale(0.100000,-0.100000)"
fill="#000000" stroke="none">
<path d="M2298 5070 c-537 -61 -1001 -264 -1405 -613 -247 -213 -451 -481
-604 -792 -123 -250 -203 -517 -241 -805 -16 -122 -16 -478 0 -600 76 -571
325 -1083 722 -1481 385 -386 878 -633 1425 -716 167 -25 552 -25 715 0 535
83 1005 312 1383 677 231 222 382 429 523 715 176 359 254 698 254 1105 0 295
-37 531 -125 795 -131 393 -338 720 -641 1015 -380 369 -850 602 -1384 685
-122 19 -504 28 -622 15z m519 -475 c867 -113 1574 -770 1747 -1625 41 -204
50 -497 21 -695 -102 -691 -526 -1267 -1155 -1569 -271 -130 -565 -196 -877
-196 -454 0 -873 141 -1243 418 -95 71 -274 245 -353 342 -223 276 -371 609
-434 975 -24 140 -24 491 0 630 62 354 196 665 405 940 165 216 458 458 707
582 199 100 497 186 710 206 110 10 365 6 472 -8z"/>
<path d="M1285 2837 c-124 -49 -187 -135 -193 -264 -7 -121 50 -218 160 -272
194 -97 418 42 418 260 0 122 -87 244 -200 278 -48 14 -146 13 -185 -2z"/>
<path d="M2490 2833 c-64 -23 -142 -105 -165 -172 -24 -72 -17 -170 15 -234
48 -96 150 -157 261 -157 215 0 355 225 258 418 -34 69 -71 104 -144 138 -60
28 -156 31 -225 7z"/>
<path d="M3703 2834 c-59 -21 -127 -86 -159 -150 -56 -115 -26 -256 72 -343
195 -172 502 -17 482 243 -9 107 -63 187 -160 235 -51 26 -73 31 -127 30 -36
0 -85 -7 -108 -15z"/>
</g>
</svg>
