<?xml version="1.0" standalone="no"?>
<!DOCTYPE svg PUBLIC "-//W3C//DTD SVG 20010904//EN"
 "http://www.w3.org/TR/2001/REC-SVG-20010904/DTD/svg10.dtd">
<svg version="1.0" xmlns="http://www.w3.org/2000/svg"
 width="512.000000pt" height="512.000000pt" viewBox="0 0 512.000000 512.000000"
 preserveAspectRatio="xMidYMid meet">

<g transform="translate(0.000000,512.000000) scale(0.100000,-0.100000)"
fill="#000000" stroke="none">
<path d="M2395 5104 c-542 -44 -997 -262 -1339 -642 -450 -501 -719 -1260
-787 -2225 -21 -305 1 -1011 37 -1185 l4 -22 515 0 515 0 0 -29 c0 -16 11 -71
24 -124 90 -356 336 -626 677 -745 184 -65 270 -77 529 -77 205 1 248 3 337
23 262 57 456 158 616 319 158 159 261 348 310 568 l14 60 489 5 489 5 12 105
c78 715 41 1384 -112 2005 -280 1134 -917 1812 -1826 1940 -112 16 -406 27
-504 19z m530 -524 c292 -63 523 -187 725 -390 126 -125 199 -221 296 -387
175 -299 307 -705 375 -1148 41 -269 51 -398 56 -763 l5 -362 -1809 0 -1810 0
-7 38 c-9 59 -7 452 4 612 42 594 152 1064 344 1465 264 551 655 865 1181 950
140 22 508 14 640 -15z m409 -3572 c-17 -58 -65 -149 -107 -204 -120 -158
-323 -247 -593 -261 -370 -19 -630 97 -744 330 -21 45 -42 99 -46 120 l-6 37
752 0 751 0 -7 -22z"/>
</g>
</svg>
