<?xml version="1.0" standalone="no"?>
<!DOCTYPE svg PUBLIC "-//W3C//DTD SVG 20010904//EN"
 "http://www.w3.org/TR/2001/REC-SVG-20010904/DTD/svg10.dtd">
<svg version="1.0" xmlns="http://www.w3.org/2000/svg"
 width="512.000000pt" height="512.000000pt" viewBox="0 0 512.000000 512.000000"
 preserveAspectRatio="xMidYMid meet">

<g transform="translate(0.000000,512.000000) scale(0.100000,-0.100000)"
fill="#000000" stroke="none">
<path d="M2470 5049 c-259 -21 -535 -164 -703 -364 -115 -136 -192 -297 -229
-475 -26 -125 -21 -345 10 -462 101 -376 385 -660 760 -760 99 -26 312 -35
420 -18 478 76 835 459 881 943 23 237 -42 484 -179 688 -56 82 -187 213 -269
269 -142 95 -329 164 -476 176 -38 3 -81 6 -95 8 -14 1 -68 -1 -120 -5z m212
-500 c298 -62 498 -380 423 -674 -37 -144 -141 -283 -267 -353 -178 -101 -405
-92 -580 25 -291 193 -331 601 -83 848 136 136 321 192 507 154z"/>
<path d="M2380 2763 c-513 -52 -973 -274 -1345 -648 -432 -433 -689 -1008
-745 -1665 -11 -130 -13 -306 -4 -363 l7 -37 2276 2 2276 3 -1 205 c0 223 -12
348 -51 540 -77 386 -240 749 -474 1060 -387 514 -932 832 -1544 900 -84 9
-317 11 -395 3z m321 -493 c805 -78 1459 -734 1619 -1623 l17 -97 -1768 0
c-1728 0 -1769 0 -1769 19 0 78 72 355 132 506 305 772 1037 1266 1769 1195z"/>
</g>
</svg>
