<?xml version="1.0" encoding="UTF-8" standalone="no"?>
<svg xmlns="http://www.w3.org/2000/svg"
    width="97pt" height="102pt"
    viewBox="0 0 97 102"
    preserveAspectRatio="xMidYMid meet">
    <!-- Lingkaran latar belakang putih -->
    <circle cx="48.5" cy="51" r="51" fill="white"/>

    <!-- Ikon grok sayap (berwarna putih penuh) -->
    <g transform="translate(0,102) scale(0.1,-0.1)" fill="#000000" stroke="none">
        <path d="M0 510 l0 -510 485 0 485 0 0 510 0 510 -485 0 -485 0 0 -510z m643
      373 c80 -38 152 -110 191 -193 28 -58 31 -75 31 -160 0 -85 -3 -102 -31 -160
      -39 -83 -111 -155 -194 -194 -58 -28 -75 -31 -160 -31 -85 0 -102 3 -160 31
      -83 39 -155 111 -194 194 -28 58 -31 75 -31 160 0 85 3 102 31 160 50 107 152
      192 261 220 70 17 186 5 256 -27z"/>
        <path d="M360 670 c0 -13 -7 -20 -20 -20 -11 0 -20 -7 -20 -15 0 -8 9 -15 20
      -15 13 0 20 -7 20 -20 0 -11 7 -20 15 -20 8 0 15 9 15 20 0 13 7 20 20 20 11
      0 20 7 20 15 0 8 -9 15 -20 15 -13 0 -20 7 -20 20 0 11 -7 20 -15 20 -8 0 -15
      -9 -15 -20z"/>
        <path d="M545 648 c-72 -25 -138 -120 -151 -217 -5 -42 -4 -51 9 -51 9 0 17
      10 19 23 3 19 10 23 59 27 63 6 85 20 108 70 9 19 24 46 32 60 9 14 19 42 22
      63 l6 37 -37 -1 c-20 0 -50 -5 -67 -11z m65 -41 c0 -28 -24 -52 -62 -61 -32
      -7 -38 -26 -8 -26 23 0 24 -4 10 -30 -16 -30 -120 -56 -120 -30 0 21 31 85
      53 109 55 59 127 81 127 38z"/>
    </g>
</svg>
